HIERARCHY
ROOT Hips
{
    OFFSET   0.000000   0.000000   0.000000
    CHANNELS 6 Xposition Yposition Zposition Zrotation Xrotation Yrotation
    JOINT Chest
    {
        OFFSET   0.000000   8.007240   0.000000
        CHANNELS 3 Zrotation Xrotation Yrotation
        JOINT Chest2
        {
            OFFSET   0.000000  22.077100   0.000000
            CHANNELS 3 Zrotation Xrotation Yrotation
            JOINT Neck
            {
                OFFSET   0.000000  23.254800   0.000000
                CHANNELS 3 Zrotation Xrotation Yrotation
                JOINT Head
                {
                    OFFSET   0.000000  14.370000   1.956600
                    CHANNELS 3 Zrotation Xrotation Yrotation
                    End Site
                    {
                        OFFSET   0.000000  19.566000   0.000000
                    }
                }
            }
            JOINT LeftCollar
            {
                OFFSET   3.911900  19.017000  -0.467064
                CHANNELS 3 Zrotation Xrotation Yrotation
                JOINT LeftShoulder
                {
                    OFFSET  10.383700   0.000000   0.000000
                    CHANNELS 3 Zrotation Xrotation Yrotation
                    JOINT LeftElbow
                    {
                        OFFSET  26.662100   0.001476   0.000517
                        CHANNELS 3 Zrotation Xrotation Yrotation
                        JOINT LeftWrist
                        {
                            OFFSET  28.869000  -0.000025  -0.000106
                            CHANNELS 3 Zrotation Xrotation Yrotation
                            JOINT LeftFinger0
                            {
                                OFFSET   2.044660  -2.323460   3.252850
                                CHANNELS 3 Zrotation Xrotation Yrotation
                                JOINT LeftFinger01
                                {
                                    OFFSET   3.088130   0.000000   0.000000
                                    CHANNELS 3 Zrotation Xrotation Yrotation
                                    JOINT LeftFinger02
                                    {
                                        OFFSET   2.639460   0.000000   0.000000
                                        CHANNELS 3 Zrotation Xrotation Yrotation
                                        End Site
                                        {
                                            OFFSET   2.582190   0.000000   0.000000
                                        }
                                    }
                                }
                            }
                            JOINT LeftFinger1
                            {
                                OFFSET   8.364480   0.000000   3.252850
                                CHANNELS 3 Zrotation Xrotation Yrotation
                                JOINT LeftFinger11
                                {
                                    OFFSET   4.646930   0.000000   0.000000
                                    CHANNELS 3 Zrotation Xrotation Yrotation
                                    JOINT LeftFinger12
                                    {
                                        OFFSET   2.323460   0.000000   0.000000
                                        CHANNELS 3 Zrotation Xrotation Yrotation
                                        End Site
                                        {
                                            OFFSET   2.273050   0.000000   0.000000
                                        }
                                    }
                                }
                            }
                            JOINT LeftFinger2
                            {
                                OFFSET   8.364490   0.000015   1.078090
                                CHANNELS 3 Zrotation Xrotation Yrotation
                                JOINT LeftFinger21
                                {
                                    OFFSET   5.111620   0.000000   0.000000
                                    CHANNELS 3 Zrotation Xrotation Yrotation
                                    JOINT LeftFinger22
                                    {
                                        OFFSET   2.788160   0.000016   0.000000
                                        CHANNELS 3 Zrotation Xrotation Yrotation
                                        End Site
                                        {
                                            OFFSET   2.727660   0.000000   0.000000
                                        }
                                    }
                                }
                            }
                            JOINT LeftFinger3
                            {
                                OFFSET   7.899780   0.000017  -1.078090
                                CHANNELS 3 Zrotation Xrotation Yrotation
                                JOINT LeftFinger31
                                {
                                    OFFSET   4.646930   0.000000   0.000000
                                    CHANNELS 3 Zrotation Xrotation Yrotation
                                    JOINT LeftFinger32
                                    {
                                        OFFSET   2.323470   0.000000   0.000000
                                        CHANNELS 3 Zrotation Xrotation Yrotation
                                        End Site
                                        {
                                            OFFSET   2.273050   0.000000   0.000000
                                        }
                                    }
                                }
                            }
                            JOINT LeftFinger4
                            {
                                OFFSET   7.435090   0.000000  -3.252850
                                CHANNELS 3 Zrotation Xrotation Yrotation
                                JOINT LeftFinger41
                                {
                                    OFFSET   3.717550   0.000000   0.000000
                                    CHANNELS 3 Zrotation Xrotation Yrotation
                                    JOINT LeftFinger42
                                    {
                                        OFFSET   1.858770   0.000000   0.000000
                                        CHANNELS 3 Zrotation Xrotation Yrotation
                                        End Site
                                        {
                                            OFFSET   1.818440   0.000000   0.000000
                                        }
                                    }
                                }
                            }
                        }
                    }
                }
            }
            JOINT RightCollar
            {
                OFFSET  -3.911900  19.017000  -0.467063
                CHANNELS 3 Zrotation Xrotation Yrotation
                JOINT RightShoulder
                {
                    OFFSET -10.383700   0.000019   0.000000
                    CHANNELS 3 Zrotation Xrotation Yrotation
                    JOINT RightElbow
                    {
                        OFFSET -26.662100   0.001175   0.000102
                        CHANNELS 3 Zrotation Xrotation Yrotation
                        JOINT RightWrist
                        {
                            OFFSET -28.869000   0.000016  -0.000079
                            CHANNELS 3 Zrotation Xrotation Yrotation
                            JOINT RightFinger0
                            {
                                OFFSET  -2.044660  -2.323490   3.252850
                                CHANNELS 3 Zrotation Xrotation Yrotation
                                JOINT RightFinger01
                                {
                                    OFFSET  -3.088140   0.000000   0.000000
                                    CHANNELS 3 Zrotation Xrotation Yrotation
                                    JOINT RightFinger02
                                    {
                                        OFFSET  -2.639460   0.000000   0.000000
                                        CHANNELS 3 Zrotation Xrotation Yrotation
                                        End Site
                                        {
                                            OFFSET  -2.582190   0.000000   0.000000
                                        }
                                    }
                                }
                            }
                            JOINT RightFinger1
                            {
                                OFFSET  -8.364480   0.000000   3.252850
                                CHANNELS 3 Zrotation Xrotation Yrotation
                                JOINT RightFinger11
                                {
                                    OFFSET  -4.646930   0.000000   0.000000
                                    CHANNELS 3 Zrotation Xrotation Yrotation
                                    JOINT RightFinger12
                                    {
                                        OFFSET  -2.323470   0.000000   0.000000
                                        CHANNELS 3 Zrotation Xrotation Yrotation
                                        End Site
                                        {
                                            OFFSET  -2.273050   0.000000   0.000000
                                        }
                                    }
                                }
                            }
                            JOINT RightFinger2
                            {
                                OFFSET  -8.364480   0.000000   1.078090
                                CHANNELS 3 Zrotation Xrotation Yrotation
                                JOINT RightFinger21
                                {
                                    OFFSET  -5.111620   0.000000   0.000000
                                    CHANNELS 3 Zrotation Xrotation Yrotation
                                    JOINT RightFinger22
                                    {
                                        OFFSET  -2.788160   0.000000   0.000000
                                        CHANNELS 3 Zrotation Xrotation Yrotation
                                        End Site
                                        {
                                            OFFSET  -2.727660   0.000000   0.000000
                                        }
                                    }
                                }
                            }
                            JOINT RightFinger3
                            {
                                OFFSET  -7.899780   0.000000  -1.078090
                                CHANNELS 3 Zrotation Xrotation Yrotation
                                JOINT RightFinger31
                                {
                                    OFFSET  -4.646930   0.000000   0.000000
                                    CHANNELS 3 Zrotation Xrotation Yrotation
                                    JOINT RightFinger32
                                    {
                                        OFFSET  -2.323470   0.000000   0.000000
                                        CHANNELS 3 Zrotation Xrotation Yrotation
                                        End Site
                                        {
                                            OFFSET  -2.273050   0.000000   0.000000
                                        }
                                    }
                                }
                            }
                            JOINT RightFinger4
                            {
                                OFFSET  -7.435090   0.000000  -3.252850
                                CHANNELS 3 Zrotation Xrotation Yrotation
                                JOINT RightFinger41
                                {
                                    OFFSET  -3.717550   0.000000   0.000000
                                    CHANNELS 3 Zrotation Xrotation Yrotation
                                    JOINT RightFinger42
                                    {
                                        OFFSET  -1.858770   0.000000   0.000000
                                        CHANNELS 3 Zrotation Xrotation Yrotation
                                        End Site
                                        {
                                            OFFSET  -1.818440   0.000000   0.000000
                                        }
                                    }
                                }
                            }
                        }
                    }
                }
            }
        }
    }
    JOINT LeftHip
    {
        OFFSET   9.783040   0.000000   0.000000
        CHANNELS 3 Zrotation Xrotation Yrotation
        JOINT LeftKnee
        {
            OFFSET   0.000032 -41.789100  -0.002222
            CHANNELS 3 Zrotation Xrotation Yrotation
            JOINT LeftAnkle
            {
                OFFSET   0.000087 -41.133200  -0.000135
                CHANNELS 3 Zrotation Xrotation Yrotation
                JOINT LeftToe
                {
                    OFFSET   0.000000  -6.358960  14.674500
                    CHANNELS 3 Zrotation Xrotation Yrotation
                    End Site
                    {
                        OFFSET   0.000000   0.000000   3.913200
                    }
                }
            }
        }
    }
    JOINT RightHip
    {
        OFFSET  -9.783040   0.000000   0.000000
        CHANNELS 3 Zrotation Xrotation Yrotation
        JOINT RightKnee
        {
            OFFSET   0.000047 -41.789100  -0.000896
            CHANNELS 3 Zrotation Xrotation Yrotation
            JOINT RightAnkle
            {
                OFFSET  -0.000117 -41.133300  -0.000248
                CHANNELS 3 Zrotation Xrotation Yrotation
                JOINT RightToe
                {
                    OFFSET   0.000000  -6.358970  14.674500
                    CHANNELS 3 Zrotation Xrotation Yrotation
                    End Site
                    {
                        OFFSET   0.000000   0.000000   3.913200
                    }
                }
            }
        }
    }
}
MOTION
Frames: 6
Frame Time:   0.016667
 -0.771133  89.538700   1.529150  -4.002000  -9.898220  -1.543630   2.367210   7.318910  -0.597686   4.872220  14.606000  -1.521350   1.936270  -0.483026   0.016313   3.181650  -0.976053   3.709830  -8.479780   0.156109  -1.637940 -67.960800  21.306200 -14.234300  -2.666860 -17.244400  -7.104130   2.505440  -3.754210   8.857050  44.451500  30.697600 -66.866300 -19.278800  -0.001367   0.000546  -4.633940  -0.000662  -0.000425 -30.312000   5.244080  -8.885430 -25.134300   0.003065   0.004125 -17.594000   0.002861   0.005183 -27.726200   0.959365  -1.824600 -30.454300   0.003302   0.004339 -20.282600   0.001801   0.005577 -27.229100  -2.417760   4.686710 -28.394400   0.006399   0.004895 -18.910700  -0.000649   0.004313 -26.976300  -2.635760   5.162470 -40.642500   0.006770   0.004559 -27.067900  -0.003772   0.003818   2.187890  -3.012740  14.410700  41.378300   3.174910  71.201200 -28.410100 -13.070900  49.767900  25.369800  34.906100 -15.356100 -53.722400  36.774200  71.460400 -21.855100   0.004036  -0.006910 -14.999800   0.001633  -0.002617  15.006000   3.584980  13.122600  12.617300   0.005185  -0.006571   8.832120  -0.003713  -0.006362  15.767500  -0.399628  -1.428360  15.773100   0.005734  -0.007469  10.504900  -0.004345  -0.006970  16.315700  -3.638520 -12.251700  16.705800   0.003989  -0.004454  11.126000  -0.006769  -0.005974  24.590700 -11.695500 -23.906400  40.610700   0.000000  -0.006083  27.046700  -0.011020  -0.001843   3.523980  14.556100   6.262360   0.672255   0.241139   8.871850  -1.489100  -4.146870   0.482139   0.000000   0.000000   0.000000   2.467110   8.099640  -4.528470   1.024640   5.520780  -4.872800  -2.812820  -2.492680  -0.472398   0.000000   0.000000   0.000000
 -0.779696  89.539000   1.556210  -4.036390  -9.874930  -1.740860   2.373810   7.269890  -0.686054   4.895440  14.504000  -1.698610   1.911510  -0.421786   0.014061   3.140840  -0.852377   3.857700  -8.446500   0.295211  -1.581940 -68.013200  21.226500 -14.191900  -2.673420 -17.169500  -7.077570   2.471330  -3.804950   8.863800  44.448100  30.703500 -66.874800 -19.289100  -0.001361   0.000400  -4.634130  -0.000678  -0.000466 -30.305000   5.233520  -8.870110 -25.127400   0.003066   0.004125 -17.589100   0.002863   0.005183 -27.722400   0.945658  -1.798720 -30.432400   0.003249   0.004339 -20.268000   0.001831   0.005577 -27.222200  -2.429270   4.709540 -28.368700   0.006390   0.004894 -18.893600  -0.000644   0.004313 -26.944700  -2.661950   5.220550 -40.598900   0.006798   0.004410 -27.038900  -0.003770   0.003945   2.275730  -2.867990  14.356500  41.870600   3.222670  70.486900 -28.592900 -13.350700  49.678300  26.643800  34.570300 -16.838600 -53.380500  36.580700  71.355200 -21.991000   0.009294  -0.006880 -14.999800   0.001692  -0.002561  15.388900   3.513620  12.563400  12.910800   0.005186  -0.006571   9.037540  -0.003713  -0.006361  16.163600  -0.497934  -1.717480  16.172500   0.005741  -0.007445  10.770900  -0.004349  -0.006984  16.627900  -3.694690 -12.190900  17.022200   0.003531  -0.004431  11.336700  -0.006772  -0.005881  24.939000 -11.764200 -23.683400  41.120100   0.000076  -0.006158  27.386000  -0.011412  -0.001891   3.519210  14.575400   6.283920   0.674296   0.257431   8.984660  -1.493860  -4.187750   0.544847  -0.000000   0.000000  -0.000000   2.467000   8.086110  -4.482210   1.020280   5.521900  -4.792690  -2.803590  -2.493180  -0.401698   0.000000   0.000000   0.000000
 -0.788892  89.539400   1.582940  -4.073560  -9.850280  -1.945200   2.379820   7.220820  -0.773234   4.917620  14.402000  -1.873340   1.887580  -0.358327   0.011792   3.101320  -0.724243   4.005660  -8.410840   0.436945  -1.525670 -68.066800  21.143600 -14.148300  -2.676440 -17.084300  -7.043870   2.432160  -3.855650   8.874100  44.443200  30.704600 -66.876600 -19.295900  -0.001313   0.000309  -4.634440  -0.000686  -0.000507 -30.297300   5.221710  -8.853370 -25.119700   0.003068   0.004125 -17.583800   0.002866   0.005183 -27.718800   0.933281  -1.775570 -30.409900   0.003196   0.004339 -20.253000   0.001860   0.005577 -27.215200  -2.438580   4.729670 -28.339600   0.006381   0.004893 -18.874200  -0.000638   0.004314 -26.910900  -2.687210   5.277350 -40.552100   0.006827   0.004321 -27.007700  -0.003770   0.004069   2.364930  -2.734360  14.294500  42.339300   3.280090  69.770800 -28.774800 -13.581200  49.587500  28.096000  34.159300 -18.403800 -53.031300  36.418200  71.233100 -22.121900   0.012876  -0.006853 -14.999800   0.001756  -0.002505  15.785000   3.438520  12.001600  13.215400   0.005186  -0.006571   9.250780  -0.003713  -0.006360  16.524200  -0.598409  -2.006940  16.536900   0.005742  -0.007428  11.013600  -0.004353  -0.006998  16.867700  -3.736780 -12.144500  17.264900   0.003234  -0.004406  11.498400  -0.006776  -0.005777  25.124800 -11.800400 -23.564700  41.391400   0.000147  -0.006460  27.566600  -0.011790  -0.001944   3.516970  14.590700   6.306050   0.676250   0.273709   9.102270  -1.499330  -4.231260   0.608409  -0.000000   0.000000  -0.000000   2.465430   8.068060  -4.450200   1.014820   5.525980  -4.698850  -2.794320  -2.493670  -0.325131  -0.000000   0.000000  -0.000000
 -0.798464  89.539700   1.606370  -4.112930  -9.823820  -2.155590   2.388660   7.174210  -0.857968   4.944770  14.304900  -2.043510   1.863080  -0.295011   0.009601   3.060860  -0.596531   4.147440  -8.377690   0.577573  -1.471970 -68.120000  21.059800 -14.118700  -2.682600 -17.073400  -6.999950   2.382430  -3.845240   8.890480  44.445000  30.699600 -66.868200 -19.288100   0.018545   0.006898  -4.634690   0.009469  -0.000548 -30.290300   5.218530  -8.851170 -25.113700   0.003075   0.004122 -17.579600   0.002864   0.005184 -27.715900   0.930671  -1.770570 -30.393400   0.003144   0.004339 -20.242000   0.001889   0.005578 -27.209700  -2.438570   4.732260 -28.314600   0.006370   0.004892 -18.857500  -0.000632   0.004315 -26.881300  -2.698640   5.308020 -40.509700   0.006854   0.004356 -26.979500  -0.003770   0.004190   2.453210  -2.620340  14.224600  42.738800   3.337530  69.061300 -28.907500 -13.814000  49.484900  29.709100  33.664000 -20.053500 -52.869100  36.257800  70.856700 -21.976900   0.012678  -0.006830 -14.999800   0.001824  -0.002445  16.112300   3.331060  11.395600  13.460300   0.005186  -0.006566   9.422260  -0.003715  -0.006373  16.740100  -0.710852  -2.355430  16.757100   0.005739  -0.007434  11.160200  -0.004352  -0.006993  16.968300  -3.753300 -12.125800  17.366400   0.002869  -0.004375  11.566000  -0.006775  -0.005650  25.124500 -11.797700 -23.567000  41.389200   0.000249  -0.007077  27.565200  -0.012179  -0.001968   3.518490  14.616200   6.322920   0.673450   0.268312   9.228680  -1.502920  -4.261170   0.673687  -0.000000   0.000000   0.000000   2.464400   8.040540  -4.443360   1.003940   5.539070  -4.577550  -2.787210  -2.493930  -0.245043  -0.000000   0.000000   0.000000
 -0.808409  89.540000   1.628620  -4.154470  -9.796870  -2.372240   2.398380   7.128970  -0.942930   4.973860  14.210500  -2.214270   1.838180  -0.232057   0.007418   3.019840  -0.469451   4.297040  -8.345240   0.717721  -1.420030 -68.173800  20.972400 -14.088100  -2.686950 -17.073300  -6.952300   2.334590  -3.829490   8.908800  44.451200  30.693600 -66.850000 -19.280400   0.038363   0.013487  -4.635610   0.019624  -0.000585 -30.283200   5.216160  -8.849040 -25.107600   0.003083   0.004119 -17.575300   0.002862   0.005185 -27.713100   0.929361  -1.768550 -30.377600   0.003091   0.004339 -20.231500   0.001919   0.005579 -27.204100  -2.438550   4.732630 -28.289900   0.006359   0.004892 -18.841100  -0.000625   0.004316 -26.852700  -2.701810   5.319100 -40.467400   0.006882   0.004597 -26.951300  -0.003770   0.004307   2.537510  -2.518100  14.151500  43.125900   3.386090  68.346300 -28.986800 -13.990900  49.440400  31.324100  33.034000 -21.718700 -52.977100  36.057900  70.316100 -21.621300   0.011542  -0.006810 -14.999800   0.001892  -0.002385  16.404400   3.198090  10.748100  13.673900   0.005185  -0.006562   9.571770  -0.003717  -0.006386  16.922600  -0.832948  -2.733150  16.944500   0.005736  -0.007440  11.285100  -0.004351  -0.006986  17.078000  -3.770820 -12.105300  17.477100   0.002511  -0.004341  11.639700  -0.006773  -0.005515  25.124300 -11.795100 -23.569200  41.387100   0.000357  -0.007898  27.563800  -0.012558  -0.001986   3.520460  14.644800   6.339350   0.671092   0.260245   9.359910  -1.505950  -4.289030   0.740725  -0.000000   0.000000   0.000000   2.466060   8.010200  -4.436480   0.991844   5.554570  -4.452550  -2.780960  -2.494030  -0.162091  -0.000000   0.000000   0.000000
 -0.818682  89.540300   1.650990  -4.198310  -9.770430  -2.595540   2.408640   7.084170  -1.031430   5.004870  14.116800  -2.392260   1.811760  -0.170226   0.005103   2.976520  -0.344235   4.469690  -8.313900   0.858225  -1.367930 -68.232500  20.877000 -14.043800  -2.690980 -17.087400  -6.909480   2.295790  -3.818340   8.924350  44.467700  30.692200 -66.820700 -19.281000   0.037920   0.013330  -4.638340   0.019400  -0.000606 -30.272900   5.206730  -8.837890 -25.098200   0.003089   0.004121 -17.568700   0.002860   0.005184 -27.709800   0.924769  -1.763310 -30.359100   0.003039   0.004339 -20.219200   0.001948   0.005578 -27.197800  -2.438350   4.732450 -28.260900   0.006349   0.004893 -18.821800  -0.000616   0.004313 -26.822100  -2.698430   5.317880 -40.421000   0.006913   0.005643 -26.920400  -0.003770   0.004419   2.613120  -2.426100  14.082600  43.565100   3.392720  67.608200 -28.978300 -14.048500  49.494700  32.699800  32.230500 -23.295900 -53.073200  35.821000  69.513600 -21.066100   0.007982  -0.006786 -15.023300   0.001925  -0.002331  16.661000   3.022940  10.006800  13.852600   0.005186  -0.006573   9.696860  -0.003713  -0.006377  17.146000  -0.978094  -3.172240  17.174000   0.005738  -0.007421  11.437900  -0.004354  -0.006986  17.353500  -3.817480 -12.052100  17.755600   0.002158  -0.004308  11.825200  -0.006773  -0.005385  25.378900 -11.838300 -23.407700  41.757000   0.000456  -0.008364  27.810100  -0.012915  -0.002010   3.519730  14.673400   6.357970   0.672071   0.256759   9.494510  -1.508920  -4.322720   0.809519   0.000000   0.000000   0.000000   2.477900   7.981960  -4.403500   0.975831   5.564750  -4.346750  -2.774690  -2.490550  -0.079552  -0.000000   0.000000   0.000000
